<?xml version="1.0" encoding="UTF-8"?>
<!DOCTYPE svg PUBLIC "-//W3C//DTD SVG 1.1//EN" "http://www.w3.org/Graphics/SVG/1.1/DTD/svg11.dtd">
<svg xmlns="http://www.w3.org/2000/svg" version="1.1" width="1380px" height="377px" style="shape-rendering:geometricPrecision; text-rendering:geometricPrecision; image-rendering:optimizeQuality; fill-rule:evenodd; clip-rule:evenodd" xmlns:xlink="http://www.w3.org/1999/xlink">
<g><path style="opacity:0.999" fill="#73778a" d="M 199.5,-0.5 C 205.5,-0.5 211.5,-0.5 217.5,-0.5C 283.067,-0.0291723 348.734,1.63749 414.5,4.5C 415.331,11.8108 415.831,19.1441 416,26.5C 418,106.833 418,187.167 416,267.5C 415.829,275.011 415.329,282.345 414.5,289.5C 412.833,290.5 411.5,291.833 410.5,293.5C 396.708,295.15 382.708,295.983 368.5,296C 330.835,296.5 293.168,296.667 255.5,296.5C 255.737,297.791 255.404,298.791 254.5,299.5C 254.5,298.5 254.5,297.5 254.5,296.5C 224.005,295.502 193.338,295.169 162.5,295.5C 162.5,299.833 162.5,304.167 162.5,308.5C 161.167,308.5 159.833,308.5 158.5,308.5C 158.5,304.833 158.5,301.167 158.5,297.5C 106.798,298.087 55.131,296.42 3.5,292.5C 1.93259,248.68 0.599261,205.013 -0.5,161.5C -0.5,136.5 -0.5,111.5 -0.5,86.5C 0.329056,63.8334 0.995723,41.0001 1.5,18C 1.5324,13.0806 2.19907,8.41395 3.5,4C 68.9777,1.64827 134.311,0.14827 199.5,-0.5 Z"/></g>
<g><path style="opacity:1" fill="#1bc3fb" d="M 133.5,25.5 C 133.5,35.1667 133.5,44.8333 133.5,54.5C 97.1667,54.5 60.8333,54.5 24.5,54.5C 24.2614,48.4348 24.7614,42.4348 26,36.5C 26.7492,32.8893 28.2492,29.7227 30.5,27C 64.8178,25.651 99.1512,25.151 133.5,25.5 Z"/></g>
<g><path style="opacity:1" fill="#c5ccde" d="M 133.5,25.5 C 218.51,25.1437 303.51,25.8104 388.5,27.5C 391.414,85.7934 392.248,144.127 391,202.5C 390.55,218.012 389.717,233.345 388.5,248.5C 388.5,183.833 388.5,119.167 388.5,54.5C 361.833,54.5 335.167,54.5 308.5,54.5C 308.5,62.8333 308.5,71.1667 308.5,79.5C 304.5,79.5 300.5,79.5 296.5,79.5C 296.5,71.1667 296.5,62.8333 296.5,54.5C 274.167,54.5 251.833,54.5 229.5,54.5C 229.5,62.8333 229.5,71.1667 229.5,79.5C 224.167,79.5 218.833,79.5 213.5,79.5C 213.5,71.1667 213.5,62.8333 213.5,54.5C 186.833,54.5 160.167,54.5 133.5,54.5C 133.5,44.8333 133.5,35.1667 133.5,25.5 Z"/></g>
<g><path style="opacity:1" fill="#c2cadc" d="M 24.5,54.5 C 60.8333,54.5 97.1667,54.5 133.5,54.5C 133.5,62.8333 133.5,71.1667 133.5,79.5C 133.5,142.167 133.5,204.833 133.5,267.5C 208.833,267.5 284.167,267.5 359.5,267.5C 249.681,271.841 139.681,272.508 29.5,269.5C 25.1023,197.909 23.4356,126.242 24.5,54.5 Z"/></g>
<g><path style="opacity:1" fill="#e3e8f6" d="M 133.5,54.5 C 160.167,54.5 186.833,54.5 213.5,54.5C 213.5,62.8333 213.5,71.1667 213.5,79.5C 186.833,79.5 160.167,79.5 133.5,79.5C 133.5,71.1667 133.5,62.8333 133.5,54.5 Z"/></g>
<g><path style="opacity:1" fill="#e4eaf7" d="M 296.5,79.5 C 274.231,80.6691 251.897,80.6691 229.5,79.5C 229.5,71.1667 229.5,62.8333 229.5,54.5C 251.833,54.5 274.167,54.5 296.5,54.5C 296.5,62.8333 296.5,71.1667 296.5,79.5 Z"/></g>
<g><path style="opacity:1" fill="#e2e8f6" d="M 388.5,248.5 C 388.821,254.026 388.488,259.36 387.5,264.5C 387.5,202.833 387.5,141.167 387.5,79.5C 361.167,79.5 334.833,79.5 308.5,79.5C 308.5,71.1667 308.5,62.8333 308.5,54.5C 335.167,54.5 361.833,54.5 388.5,54.5C 388.5,119.167 388.5,183.833 388.5,248.5 Z"/></g>
<g><path style="opacity:1" fill="#7a7f92" d="M 46.5,75.5 C 50.5138,75.3345 54.5138,75.5012 58.5,76C 68.3156,77.6956 68.9823,81.0289 60.5,86C 56.6123,88.2225 53.1123,87.7225 50,84.5C 48.3364,81.6729 47.1697,78.6729 46.5,75.5 Z"/></g>
<g><path style="opacity:1" fill="#9aa1ba" d="M 79.5,75.5 C 90.8333,75.5 102.167,75.5 113.5,75.5C 113.5,79.8333 113.5,84.1667 113.5,88.5C 103.376,88.9942 93.376,88.1609 83.5,86C 80.6269,83.087 79.2935,79.587 79.5,75.5 Z"/></g>
<g><path style="opacity:1" fill="#fbfdfd" d="M 133.5,79.5 C 160.167,79.5 186.833,79.5 213.5,79.5C 218.833,79.5 224.167,79.5 229.5,79.5C 251.897,80.6691 274.231,80.6691 296.5,79.5C 300.5,79.5 304.5,79.5 308.5,79.5C 334.833,79.5 361.167,79.5 387.5,79.5C 387.5,141.167 387.5,202.833 387.5,264.5C 387.047,265.458 386.381,266.292 385.5,267C 376.84,267.5 368.173,267.666 359.5,267.5C 284.167,267.5 208.833,267.5 133.5,267.5C 133.5,204.833 133.5,142.167 133.5,79.5 Z"/></g>
<g><path style="opacity:1" fill="#767c8f" d="M 49.5,100.5 C 56.258,99.2508 61.758,101.251 66,106.5C 66.5608,109.298 65.3941,111.131 62.5,112C 58.8333,112.667 55.1667,112.667 51.5,112C 45.911,108.843 45.2443,105.01 49.5,100.5 Z"/></g>
<g><path style="opacity:1" fill="#979eb7" d="M 82.5,100.5 C 92.5,100.5 102.5,100.5 112.5,100.5C 112.5,104.833 112.5,109.167 112.5,113.5C 102.727,113.857 93.0608,113.023 83.5,111C 79.8424,107.862 79.509,104.362 82.5,100.5 Z"/></g>
<g><path style="opacity:0.997" fill="#43c1f2" d="M 1158.5,250.5 C 1150.17,250.5 1141.83,250.5 1133.5,250.5C 1133.5,249.5 1133.5,248.5 1133.5,247.5C 1133.83,244.509 1132.83,242.176 1130.5,240.5C 1130.53,239.503 1130.03,238.836 1129,238.5C 1126.88,239.14 1125.05,240.14 1123.5,241.5C 1120.76,241.707 1118.43,242.707 1116.5,244.5C 1114.21,244.595 1112.21,245.262 1110.5,246.5C 1107.85,246.41 1105.51,247.076 1103.5,248.5C 1096.47,249.8 1089.47,249.8 1082.5,248.5C 1080.15,246.659 1077.48,245.326 1074.5,244.5C 1072.83,242.167 1070.83,240.167 1068.5,238.5C 1068.57,236.973 1067.91,235.973 1066.5,235.5C 1066.01,233.181 1065.01,231.181 1063.5,229.5C 1062.26,227.786 1061.59,225.786 1061.5,223.5C 1061.71,220.505 1061.04,217.838 1059.5,215.5C 1057.69,201.049 1057.35,186.716 1058.5,172.5C 1059.92,170.485 1060.59,168.152 1060.5,165.5C 1062.01,163.819 1063.01,161.819 1063.5,159.5C 1068.67,153.656 1074.67,148.989 1081.5,145.5C 1085.43,145.074 1089.09,144.074 1092.5,142.5C 1099.2,142.391 1105.86,142.724 1112.5,143.5C 1114.85,145.341 1117.52,146.674 1120.5,147.5C 1121.58,149.587 1123.25,150.92 1125.5,151.5C 1125.78,152.289 1126.28,152.956 1127,153.5C 1127.49,152.207 1127.66,150.873 1127.5,149.5C 1128.2,135.835 1128.87,122.169 1129.5,108.5C 1129.5,105.833 1129.5,103.167 1129.5,100.5C 1139.17,100.5 1148.83,100.5 1158.5,100.5C 1158.5,150.5 1158.5,200.5 1158.5,250.5 Z M 1111.5,167.5 C 1114.68,169.009 1118.01,170.342 1121.5,171.5C 1123.92,173.908 1125.92,176.574 1127.5,179.5C 1127.61,184.71 1128.28,189.71 1129.5,194.5C 1129.5,196.167 1129.5,197.833 1129.5,199.5C 1128.41,204.306 1127.74,209.306 1127.5,214.5C 1125.83,216.833 1123.83,218.833 1121.5,220.5C 1119.18,220.992 1117.18,221.992 1115.5,223.5C 1110.86,223.141 1106.19,222.807 1101.5,222.5C 1101.16,221.662 1100.49,221.328 1099.5,221.5C 1096.14,217.808 1092.8,214.141 1089.5,210.5C 1088.93,205.817 1088.26,201.15 1087.5,196.5C 1089.28,186.267 1093.28,176.934 1099.5,168.5C 1103.43,167.64 1107.43,167.307 1111.5,167.5 Z"/></g>
<g><path style="opacity:0.2" fill="#cfeffb" d="M 1158.5,250.5 C 1158.5,200.5 1158.5,150.5 1158.5,100.5C 1148.83,100.5 1139.17,100.5 1129.5,100.5C 1129.5,103.167 1129.5,105.833 1129.5,108.5C 1128.52,105.713 1128.19,102.713 1128.5,99.5C 1138.83,99.5 1149.17,99.5 1159.5,99.5C 1159.83,150.003 1159.5,200.336 1158.5,250.5 Z"/></g>
<g><path style="opacity:0.999" fill="#46c1f2" d="M 543.5,110.5 C 548.311,113.07 553.311,115.403 558.5,117.5C 558.973,118.906 559.973,119.573 561.5,119.5C 563.5,122.167 565.833,124.5 568.5,126.5C 568.427,128.027 569.094,129.027 570.5,129.5C 570.992,131.819 571.992,133.819 573.5,135.5C 573.42,138.781 574.087,141.781 575.5,144.5C 575.823,151.022 575.49,157.355 574.5,163.5C 573.232,165.905 572.565,168.572 572.5,171.5C 570.326,174.515 568.659,177.849 567.5,181.5C 563.833,184.5 560.5,187.833 557.5,191.5C 555.973,191.427 554.973,192.094 554.5,193.5C 554.158,194.338 553.492,194.672 552.5,194.5C 550.447,194.402 548.78,195.069 547.5,196.5C 544.848,196.41 542.515,197.076 540.5,198.5C 528.662,200.818 516.662,201.818 504.5,201.5C 504.5,217.833 504.5,234.167 504.5,250.5C 494.5,250.5 484.5,250.5 474.5,250.5C 474.5,203.167 474.5,155.833 474.5,108.5C 497.557,108.035 520.557,108.702 543.5,110.5 Z M 531.5,135.5 C 531.738,137.404 532.738,138.738 534.5,139.5C 536.607,140.88 537.94,142.38 538.5,144C 538.989,151.276 538.322,158.61 536.5,166C 536.833,166.333 537.167,166.667 537.5,167C 532.728,169.275 527.395,171.275 521.5,173C 516.581,173.802 511.748,173.635 507,172.5C 506.333,160.5 506.333,148.5 507,136.5C 507.5,136 508,135.5 508.5,135C 515.826,134.019 522.993,134.519 530,136.5C 530.383,135.944 530.883,135.611 531.5,135.5 Z"/></g>
<g><path style="opacity:0.997" fill="#49c2f2" d="M 905.5,112.5 C 907.849,114.341 910.515,115.674 913.5,116.5C 914.833,116.5 915.5,117.167 915.5,118.5C 916.324,121.764 916.658,125.098 916.5,128.5C 915.326,129.514 914.66,130.847 914.5,132.5C 912.413,133.585 911.08,135.251 910.5,137.5C 909.833,138.833 908.833,139.833 907.5,140.5C 905.973,140.427 904.973,141.094 904.5,142.5C 904.167,142.5 903.833,142.5 903.5,142.5C 902.22,141.069 900.553,140.402 898.5,140.5C 895.079,137.804 891.079,136.47 886.5,136.5C 884.585,136.784 882.919,136.451 881.5,135.5C 877.354,134.353 873.02,134.186 868.5,135C 865.826,135.67 863.493,136.837 861.5,138.5C 859.973,138.427 858.973,139.094 858.5,140.5C 855.5,141.5 853.5,143.5 852.5,146.5C 851.094,146.973 850.427,147.973 850.5,149.5C 848.461,150.911 847.461,152.911 847.5,155.5C 845.528,158.084 844.528,161.084 844.5,164.5C 842.918,167.876 842.251,171.542 842.5,175.5C 842.5,178.167 842.5,180.833 842.5,183.5C 842.083,187.817 842.75,191.817 844.5,195.5C 844.138,199.081 845.138,202.081 847.5,204.5C 847.794,207.754 849.127,210.421 851.5,212.5C 856.313,220.913 863.647,225.247 873.5,225.5C 877.154,225.058 880.821,224.724 884.5,224.5C 891.427,224.079 897.76,222.079 903.5,218.5C 905.565,218.483 907.565,218.15 909.5,217.5C 909.402,219.553 910.069,221.22 911.5,222.5C 913.671,230.59 914.005,238.757 912.5,247C 894.023,251.451 875.356,252.451 856.5,250C 852.573,249.276 848.906,248.109 845.5,246.5C 842.485,244.326 839.151,242.659 835.5,241.5C 835.027,240.094 834.027,239.427 832.5,239.5C 829.5,235.833 826.167,232.5 822.5,229.5C 822.573,227.973 821.906,226.973 820.5,226.5C 820.573,224.973 819.906,223.973 818.5,223.5C 817.662,223.158 817.328,222.492 817.5,221.5C 817.293,218.759 816.293,216.426 814.5,214.5C 814.405,212.214 813.738,210.214 812.5,208.5C 812.58,205.219 811.913,202.219 810.5,199.5C 807.891,183.837 807.891,168.17 810.5,152.5C 812.397,150.302 813.397,147.636 813.5,144.5C 813.328,143.508 813.662,142.842 814.5,142.5C 816.931,140.954 818.264,138.621 818.5,135.5C 819.906,135.027 820.573,134.027 820.5,132.5C 824.138,128.526 827.805,124.526 831.5,120.5C 835.192,118.656 838.525,116.323 841.5,113.5C 845.165,113.498 848.165,112.165 850.5,109.5C 862.66,108.34 874.993,108.173 887.5,109C 893.812,109.23 899.812,110.396 905.5,112.5 Z"/></g>
<g><path style="opacity:0.741" fill="#b9e4f9" d="M 850.5,109.5 C 848.165,112.165 845.165,113.498 841.5,113.5C 844.088,111.375 847.088,110.042 850.5,109.5 Z"/></g>
<g><path style="opacity:0.063" fill="#edf8fd" d="M 543.5,110.5 C 549.192,111.514 554.192,113.848 558.5,117.5C 553.311,115.403 548.311,113.07 543.5,110.5 Z"/></g>
<g><path style="opacity:0.061" fill="#ecf8fc" d="M 841.5,113.5 C 838.525,116.323 835.192,118.656 831.5,120.5C 834.125,117.185 837.458,114.851 841.5,113.5 Z"/></g>
<g><path style="opacity:0.02" fill="#eaf7fc" d="M 905.5,112.5 C 908.754,112.794 911.421,114.127 913.5,116.5C 910.515,115.674 907.849,114.341 905.5,112.5 Z"/></g>
<g><path style="opacity:0.02" fill="#f2fafd" d="M 558.5,117.5 C 560.027,117.427 561.027,118.094 561.5,119.5C 559.973,119.573 558.973,118.906 558.5,117.5 Z"/></g>
<g><path style="opacity:0.088" fill="#f9fcfd" d="M 561.5,119.5 C 564.833,120.833 567.167,123.167 568.5,126.5C 565.833,124.5 563.5,122.167 561.5,119.5 Z"/></g>
<g><path style="opacity:0.275" fill="#dbf2fb" d="M 915.5,118.5 C 916.117,118.611 916.617,118.944 917,119.5C 917.805,122.696 917.638,125.696 916.5,128.5C 916.658,125.098 916.324,121.764 915.5,118.5 Z"/></g>
<g><path style="opacity:0.263" fill="#f4fafd" d="M 831.5,120.5 C 827.805,124.526 824.138,128.526 820.5,132.5C 822.777,127.223 826.444,123.223 831.5,120.5 Z"/></g>
<g><path style="opacity:0.255" fill="#ebf8fc" d="M 568.5,126.5 C 569.906,126.973 570.573,127.973 570.5,129.5C 569.094,129.027 568.427,128.027 568.5,126.5 Z"/></g>
<g><path style="opacity:1" fill="#7c8194" d="M 46.5,129.5 C 50.8461,129.334 55.1794,129.501 59.5,130C 62.2101,131.015 64.5434,132.515 66.5,134.5C 56.6874,145.199 50.0207,143.533 46.5,129.5 Z"/></g>
<g><path style="opacity:1" fill="#9aa2b9" d="M 79.5,129.5 C 86.175,129.334 92.8417,129.5 99.5,130C 104.177,130.614 108.511,132.114 112.5,134.5C 110.255,137.912 107.255,140.412 103.5,142C 98.1667,142.667 92.8333,142.667 87.5,142C 81.9437,139.728 79.277,135.561 79.5,129.5 Z"/></g>
<g><path style="opacity:0.053" fill="#eef9fd" d="M 916.5,128.5 C 916.771,130.38 916.104,131.713 914.5,132.5C 914.66,130.847 915.326,129.514 916.5,128.5 Z"/></g>
<g><path style="opacity:0.059" fill="#eff9fd" d="M 570.5,129.5 C 572.539,130.911 573.539,132.911 573.5,135.5C 571.992,133.819 570.992,131.819 570.5,129.5 Z"/></g>
<g><path style="opacity:0.041" fill="#f0f9fd" d="M 531.5,135.5 C 535.668,137.118 538.502,140.118 540,144.5C 540.991,152.651 540.324,160.651 538,168.5C 533.942,171.3 529.442,173.134 524.5,174C 517.897,175.274 511.23,175.774 504.5,175.5C 504.5,161.5 504.5,147.5 504.5,133.5C 511.464,132.447 518.464,132.28 525.5,133C 527.723,133.566 529.723,134.4 531.5,135.5 Z M 531.5,135.5 C 531.738,137.404 532.738,138.738 534.5,139.5C 536.607,140.88 537.94,142.38 538.5,144C 538.989,151.276 538.322,158.61 536.5,166C 536.833,166.333 537.167,166.667 537.5,167C 532.728,169.275 527.395,171.275 521.5,173C 516.581,173.802 511.748,173.635 507,172.5C 506.333,160.5 506.333,148.5 507,136.5C 507.5,136 508,135.5 508.5,135C 515.826,134.019 522.993,134.519 530,136.5C 530.383,135.944 530.883,135.611 531.5,135.5 Z"/></g>
<g><path style="opacity:1" fill="#37c9ff" d="M 174.5,133.5 C 186.311,133.162 197.644,135.329 208.5,140C 212.446,144.002 214.112,148.836 213.5,154.5C 206.598,152.367 199.598,150.534 192.5,149C 180.024,147.311 172.191,152.478 169,164.5C 163.377,183.788 170.044,195.788 189,200.5C 196.37,199.879 202.87,197.212 208.5,192.5C 210.891,194.366 211.891,196.866 211.5,200C 209.632,210.204 203.465,214.038 193,211.5C 162.938,211.431 149.938,196.431 154,166.5C 154.243,161.194 155.576,156.194 158,151.5C 162.657,144.678 168.157,138.678 174.5,133.5 Z"/></g>
<g><path style="opacity:1" fill="#2cc7ff" d="M 238.5,188.5 C 237.508,196.316 237.174,204.316 237.5,212.5C 233.5,212.5 229.5,212.5 225.5,212.5C 223.587,186.756 224.753,161.089 229,135.5C 232.571,134.208 236.405,133.542 240.5,133.5C 261.501,129.755 277.001,137.088 287,155.5C 288.479,163.581 286.812,170.914 282,177.5C 278.5,181 275,184.5 271.5,188C 276.879,195.636 279.545,204.136 279.5,213.5C 275.325,213.812 271.325,213.145 267.5,211.5C 262.958,204.248 258.291,197.081 253.5,190C 248.493,187.744 243.493,187.244 238.5,188.5 Z"/></g>
<g><path style="opacity:1" fill="#39caff" d="M 295.5,133.5 C 302.306,132.692 308.639,134.025 314.5,137.5C 318.797,151.722 324.464,165.388 331.5,178.5C 338.723,165.668 344.89,152.334 350,138.5C 355.975,132.23 362.309,131.897 369,137.5C 372.405,161.513 372.238,185.513 368.5,209.5C 364.35,212.571 359.683,213.905 354.5,213.5C 354.667,201.829 354.5,190.162 354,178.5C 353.333,177.833 352.667,177.167 352,176.5C 346.431,186.535 342.431,197.202 340,208.5C 337.588,211.792 334.421,212.959 330.5,212C 321.178,199.185 314.678,185.019 311,169.5C 309.333,184.5 307.667,199.5 306,214.5C 302.923,218.593 300.256,218.259 298,213.5C 296.046,186.868 295.213,160.202 295.5,133.5 Z"/></g>
<g><path style="opacity:0.247" fill="#ecf8fc" d="M 820.5,132.5 C 820.573,134.027 819.906,135.027 818.5,135.5C 818.427,133.973 819.094,132.973 820.5,132.5 Z"/></g>
<g><path style="opacity:0.039" fill="#edf8fc" d="M 914.5,132.5 C 913.92,134.749 912.587,136.415 910.5,137.5C 911.08,135.251 912.413,133.585 914.5,132.5 Z"/></g>
<g><path style="opacity:0.059" fill="#def3fb" d="M 881.5,135.5 C 874.56,134.964 867.894,135.964 861.5,138.5C 863.493,136.837 865.826,135.67 868.5,135C 873.02,134.186 877.354,134.353 881.5,135.5 Z"/></g>
<g><path style="opacity:0.62" fill="#ccecfa" d="M 886.5,136.5 C 891.079,136.47 895.079,137.804 898.5,140.5C 894.315,139.46 890.315,138.127 886.5,136.5 Z"/></g>
<g><path style="opacity:0.773" fill="#b6e3f9" d="M 818.5,135.5 C 818.264,138.621 816.931,140.954 814.5,142.5C 815.079,139.669 816.412,137.336 818.5,135.5 Z"/></g>
<g><path style="opacity:0.088" fill="#fafcfd" d="M 861.5,138.5 C 861.027,139.906 860.027,140.573 858.5,140.5C 858.973,139.094 859.973,138.427 861.5,138.5 Z"/></g>
<g><path style="opacity:0.998" fill="#49c2f2" d="M 1249.5,141.5 C 1251.91,142.768 1254.57,143.435 1257.5,143.5C 1258.78,144.931 1260.45,145.598 1262.5,145.5C 1267.1,148.762 1271.43,152.428 1275.5,156.5C 1275.43,158.027 1276.09,159.027 1277.5,159.5C 1277.99,161.819 1278.99,163.819 1280.5,165.5C 1280.41,168.152 1281.08,170.485 1282.5,172.5C 1283.3,173.952 1283.8,175.618 1284,177.5C 1284.5,185.827 1284.67,194.16 1284.5,202.5C 1262.39,204.308 1240.06,205.141 1217.5,205C 1216.19,206.943 1216.19,208.777 1217.5,210.5C 1216.91,213.631 1217.91,215.964 1220.5,217.5C 1221.89,221.888 1224.89,223.888 1229.5,223.5C 1237.82,224.055 1246.16,224.388 1254.5,224.5C 1259.45,224.877 1264.12,224.211 1268.5,222.5C 1272.12,221.408 1275.78,220.908 1279.5,221C 1280.47,225.401 1280.8,229.901 1280.5,234.5C 1279.26,236.649 1278.26,238.982 1277.5,241.5C 1277.17,242.5 1276.5,243.167 1275.5,243.5C 1273.97,243.427 1272.97,244.094 1272.5,245.5C 1270.85,245.66 1269.51,246.326 1268.5,247.5C 1267.05,248.302 1265.38,248.802 1263.5,249C 1250.76,249.812 1238.09,249.646 1225.5,248.5C 1220.35,246.878 1215.01,245.545 1209.5,244.5C 1207.82,242.992 1205.82,241.992 1203.5,241.5C 1202.51,241.672 1201.84,241.338 1201.5,240.5C 1200.09,238.086 1198.09,236.419 1195.5,235.5C 1194.5,235.167 1193.83,234.5 1193.5,233.5C 1193.26,231.596 1192.26,230.262 1190.5,229.5C 1189.67,226.515 1188.34,223.849 1186.5,221.5C 1182.63,208.182 1182.63,194.849 1186.5,181.5C 1188.28,177.8 1189.28,173.8 1189.5,169.5C 1191.64,166.2 1192.98,162.533 1193.5,158.5C 1193.5,157.167 1194.17,156.5 1195.5,156.5C 1197.75,155.92 1199.42,154.587 1200.5,152.5C 1206.19,149.324 1211.52,145.658 1216.5,141.5C 1227.63,140.201 1238.63,140.201 1249.5,141.5 Z M 1246.5,166.5 C 1247.99,169.33 1249.66,172.33 1251.5,175.5C 1252.22,177.782 1252.56,180.116 1252.5,182.5C 1241.17,182.5 1229.83,182.5 1218.5,182.5C 1217.84,175.491 1220.18,169.825 1225.5,165.5C 1232.62,163.931 1239.62,164.264 1246.5,166.5 Z"/></g>
<g><path style="opacity:0.995" fill="#4fc4f2" d="M 609.5,141.5 C 615.289,143.567 620.289,146.901 624.5,151.5C 624.962,153.757 625.962,155.757 627.5,157.5C 631.968,153.014 636.635,149.014 641.5,145.5C 642.78,144.069 644.447,143.402 646.5,143.5C 649.727,143.324 652.727,142.657 655.5,141.5C 657.5,141.5 659.5,141.5 661.5,141.5C 662.919,142.451 664.585,142.784 666.5,142.5C 666.5,151.833 666.5,161.167 666.5,170.5C 662.298,170.183 658.298,170.517 654.5,171.5C 654.167,171.5 653.833,171.5 653.5,171.5C 650.772,171.171 648.438,171.837 646.5,173.5C 645.486,174.674 644.153,175.34 642.5,175.5C 640.973,175.427 639.973,176.094 639.5,177.5C 635.398,179.266 632.731,182.266 631.5,186.5C 630.089,207.807 629.422,229.141 629.5,250.5C 618.167,250.5 606.833,250.5 595.5,250.5C 595.5,214.167 595.5,177.833 595.5,141.5C 600.181,140.238 604.848,140.238 609.5,141.5 Z"/></g>
<g><path style="opacity:0.039" fill="#f2fafd" d="M 716.5,141.5 C 714.151,143.341 711.485,144.674 708.5,145.5C 710.579,143.127 713.246,141.794 716.5,141.5 Z"/></g>
<g><path style="opacity:0.997" fill="#49c2f2" d="M 716.5,141.5 C 727.218,141.213 737.885,141.546 748.5,142.5C 752.595,144.279 756.928,145.612 761.5,146.5C 763.181,148.008 765.181,149.008 767.5,149.5C 767.973,150.906 768.973,151.573 770.5,151.5C 773.167,154.833 776.167,157.833 779.5,160.5C 779.427,162.027 780.094,163.027 781.5,163.5C 783.625,166.088 784.958,169.088 785.5,172.5C 785.42,175.781 786.087,178.781 787.5,181.5C 788.943,192.878 788.609,204.211 786.5,215.5C 784.93,218.314 783.597,221.314 782.5,224.5C 781.094,224.973 780.427,225.973 780.5,227.5C 779.094,227.973 778.427,228.973 778.5,230.5C 776.086,231.911 774.419,233.911 773.5,236.5C 773.5,237.167 773.167,237.5 772.5,237.5C 769.911,238.419 767.911,240.086 766.5,242.5C 764.973,242.427 763.973,243.094 763.5,244.5C 761.181,244.992 759.181,245.992 757.5,247.5C 755.447,247.402 753.78,248.069 752.5,249.5C 741.407,252.158 730.407,252.158 719.5,249.5C 717.162,247.96 714.495,247.294 711.5,247.5C 709.151,245.659 706.485,244.326 703.5,243.5C 703.027,242.094 702.027,241.427 700.5,241.5C 699.089,239.086 697.089,237.419 694.5,236.5C 693.581,233.911 691.914,231.911 689.5,230.5C 686.604,223.212 684.771,215.545 684,207.5C 683.333,197.167 683.333,186.833 684,176.5C 684.191,174.292 684.691,172.292 685.5,170.5C 686.674,169.486 687.34,168.153 687.5,166.5C 688.906,166.027 689.573,165.027 689.5,163.5C 693.472,159.193 697.472,154.859 701.5,150.5C 703.404,150.262 704.738,149.262 705.5,147.5C 707.027,147.573 708.027,146.906 708.5,145.5C 711.485,144.674 714.151,143.341 716.5,141.5 Z M 739.5,168.5 C 739.833,168.5 740.167,168.5 740.5,168.5C 742.181,170.008 744.181,171.008 746.5,171.5C 747.262,173.262 748.596,174.262 750.5,174.5C 751.716,177.871 752.716,181.205 753.5,184.5C 753.666,191.175 753.5,197.842 753,204.5C 751.22,206.383 751.053,208.383 752.5,210.5C 752,212.5 751.5,214.5 751,216.5C 749.333,217.733 747.833,219.067 746.5,220.5C 744.181,220.992 742.181,221.992 740.5,223.5C 740.167,223.5 739.833,223.5 739.5,223.5C 734.869,222.775 730.202,222.108 725.5,221.5C 723.833,219.167 721.833,217.167 719.5,215.5C 719.573,213.973 718.906,212.973 717.5,212.5C 716.141,208.747 714.807,205.081 713.5,201.5C 713.5,197.167 713.5,192.833 713.5,188.5C 715.461,183.901 717.461,179.235 719.5,174.5C 721.963,172.539 724.297,170.372 726.5,168C 730.871,167.371 735.204,167.537 739.5,168.5 Z"/></g>
<g><path style="opacity:0.035" fill="#f5fbfd" d="M 898.5,140.5 C 900.553,140.402 902.22,141.069 903.5,142.5C 901.447,142.598 899.78,141.931 898.5,140.5 Z"/></g>
<g><path style="opacity:0.035" fill="#eaf7fc" d="M 907.5,140.5 C 907.027,141.906 906.027,142.573 904.5,142.5C 904.973,141.094 905.973,140.427 907.5,140.5 Z"/></g>
<g><path style="opacity:0.997" fill="#49c2f2" d="M 997.5,142.5 C 999.838,144.04 1002.5,144.706 1005.5,144.5C 1006.79,144.263 1007.79,144.596 1008.5,145.5C 1010.43,147.293 1012.76,148.293 1015.5,148.5C 1016.66,150.25 1018.33,151.25 1020.5,151.5C 1023.5,155.167 1026.83,158.5 1030.5,161.5C 1030.43,163.027 1031.09,164.027 1032.5,164.5C 1036.67,171.487 1038.83,179.153 1039,187.5C 1039.69,198.422 1038.85,209.089 1036.5,219.5C 1035.46,220.93 1034.8,222.597 1034.5,224.5C 1033.09,224.973 1032.43,225.973 1032.5,227.5C 1030.74,228.262 1029.74,229.596 1029.5,231.5C 1029.5,232.167 1029.17,232.5 1028.5,232.5C 1025.83,234.5 1023.5,236.833 1021.5,239.5C 1021.5,240.167 1021.17,240.5 1020.5,240.5C 1018.6,240.738 1017.26,241.738 1016.5,243.5C 1016.16,244.338 1015.49,244.672 1014.5,244.5C 1009.16,246.722 1003.82,248.722 998.5,250.5C 994.681,251.166 990.681,251.499 986.5,251.5C 980.583,251.695 974.916,251.029 969.5,249.5C 967.162,247.96 964.495,247.294 961.5,247.5C 959.151,245.659 956.485,244.326 953.5,243.5C 952.415,241.413 950.749,240.08 948.5,239.5C 947.5,239.167 946.833,238.5 946.5,237.5C 946.262,235.596 945.262,234.262 943.5,233.5C 943.573,231.973 942.906,230.973 941.5,230.5C 941.34,228.847 940.674,227.514 939.5,226.5C 939.598,224.447 938.931,222.78 937.5,221.5C 937.405,219.214 936.738,217.214 935.5,215.5C 935.435,212.572 934.768,209.905 933.5,207.5C 931.611,200.339 931.278,193.006 932.5,185.5C 933.868,181.702 934.868,177.702 935.5,173.5C 937.341,171.151 938.674,168.485 939.5,165.5C 940.906,165.027 941.573,164.027 941.5,162.5C 946.5,158.167 951.167,153.5 955.5,148.5C 959.025,147.241 962.025,145.241 964.5,142.5C 975.372,141.201 986.372,141.201 997.5,142.5 Z M 986.5,168.5 C 987.919,169.451 989.585,169.784 991.5,169.5C 992.78,170.931 994.447,171.598 996.5,171.5C 996.842,172.338 997.508,172.672 998.5,172.5C 1000.09,174.633 1002.09,176.299 1004.5,177.5C 1005.68,180.025 1007.01,182.525 1008.5,185C 1007.34,190.781 1007.34,196.614 1008.5,202.5C 1008.5,202.833 1008.5,203.167 1008.5,203.5C 1006.54,210.802 1002.54,216.802 996.5,221.5C 994.847,221.66 993.514,222.326 992.5,223.5C 988.5,222.167 984.5,222.167 980.5,223.5C 978.819,221.992 976.819,220.992 974.5,220.5C 974.027,219.094 973.027,218.427 971.5,218.5C 970.201,216.588 969.201,214.588 968.5,212.5C 969.717,203.818 969.717,195.152 968.5,186.5C 968.5,186.167 968.5,185.833 968.5,185.5C 970.675,180.319 972.675,174.986 974.5,169.5C 978.4,168.57 982.4,168.237 986.5,168.5 Z"/></g>
<g><path style="opacity:0.386" fill="#c6ebfa" d="M 1092.5,142.5 C 1094.98,141.836 1097.64,141.503 1100.5,141.5C 1104.78,141.337 1108.78,142.003 1112.5,143.5C 1105.86,142.724 1099.2,142.391 1092.5,142.5 Z"/></g>
<g><path style="opacity:0.022" fill="#e5f5fc" d="M 1249.5,141.5 C 1252.5,141.294 1255.16,141.96 1257.5,143.5C 1254.57,143.435 1251.91,142.768 1249.5,141.5 Z"/></g>
<g><path style="opacity:0.373" fill="#bee8f9" d="M 573.5,135.5 C 574.913,138.219 575.58,141.219 575.5,144.5C 574.087,141.781 573.42,138.781 573.5,135.5 Z"/></g>
<g><path style="opacity:0.557" fill="#cbecfa" d="M 655.5,141.5 C 652.727,142.657 649.727,143.324 646.5,143.5C 649.171,141.882 652.171,141.215 655.5,141.5 Z"/></g>
<g><path style="opacity:0.529" fill="#aae2f8" d="M 654.5,171.5 C 658.298,170.517 662.298,170.183 666.5,170.5C 666.5,161.167 666.5,151.833 666.5,142.5C 664.585,142.784 662.919,142.451 661.5,141.5C 663.46,140.862 665.293,140.862 667,141.5C 667.5,151.494 667.666,161.494 667.5,171.5C 663.167,171.5 658.833,171.5 654.5,171.5 Z"/></g>
<g><path style="opacity:0.022" fill="#e9f6fc" d="M 748.5,142.5 C 753.264,142.769 757.597,144.102 761.5,146.5C 756.928,145.612 752.595,144.279 748.5,142.5 Z"/></g>
<g><path style="opacity:0.068" fill="#e9f6fc" d="M 997.5,142.5 C 1000.43,142.565 1003.09,143.232 1005.5,144.5C 1002.5,144.706 999.838,144.04 997.5,142.5 Z"/></g>
<g><path style="opacity:0.199" fill="#c7ecfa" d="M 1333.5,142.5 C 1325.17,142.5 1316.83,142.5 1308.5,142.5C 1308.5,178.5 1308.5,214.5 1308.5,250.5C 1307.5,214.337 1307.17,178.004 1307.5,141.5C 1316.35,141.174 1325.02,141.507 1333.5,142.5 Z"/></g>
<g><path style="opacity:0.999" fill="#42c0f2" d="M 1379.5,141.5 C 1379.5,151.5 1379.5,161.5 1379.5,171.5C 1375.5,171.5 1371.5,171.5 1367.5,171.5C 1363.08,171.272 1359.08,172.272 1355.5,174.5C 1351.58,175.127 1348.25,176.793 1345.5,179.5C 1343.82,180.183 1343.16,181.517 1343.5,183.5C 1338.52,205.605 1336.86,227.938 1338.5,250.5C 1328.5,250.5 1318.5,250.5 1308.5,250.5C 1308.5,214.5 1308.5,178.5 1308.5,142.5C 1316.83,142.5 1325.17,142.5 1333.5,142.5C 1333.5,144.167 1333.5,145.833 1333.5,147.5C 1333.26,149.898 1333.93,151.898 1335.5,153.5C 1335.27,155.716 1336.11,157.383 1338,158.5C 1340.7,155.964 1343.2,153.297 1345.5,150.5C 1349.33,148.75 1353,146.75 1356.5,144.5C 1359.15,144.59 1361.49,143.924 1363.5,142.5C 1368.64,141.512 1373.97,141.179 1379.5,141.5 Z"/></g>
<g><path style="opacity:0.039" fill="#f1f9fd" d="M 858.5,140.5 C 856.833,142.833 854.833,144.833 852.5,146.5C 853.5,143.5 855.5,141.5 858.5,140.5 Z"/></g>
<g><path style="opacity:0.063" fill="#eef8fd" d="M 964.5,142.5 C 962.025,145.241 959.025,147.241 955.5,148.5C 957.951,145.723 960.951,143.723 964.5,142.5 Z"/></g>
<g><path style="opacity:0.569" fill="#c5eafa" d="M 1092.5,142.5 C 1089.09,144.074 1085.43,145.074 1081.5,145.5C 1084.76,143.432 1088.43,142.432 1092.5,142.5 Z"/></g>
<g><path style="opacity:0.055" fill="#eef8fd" d="M 1257.5,143.5 C 1259.55,143.402 1261.22,144.069 1262.5,145.5C 1260.45,145.598 1258.78,144.931 1257.5,143.5 Z"/></g>
<g><path style="opacity:0.635" fill="#bce7f9" d="M 1363.5,142.5 C 1361.49,143.924 1359.15,144.59 1356.5,144.5C 1358.51,143.076 1360.85,142.41 1363.5,142.5 Z"/></g>
<g><path style="opacity:0.078" fill="#eef8fc" d="M 609.5,141.5 C 616.411,142.112 621.411,145.446 624.5,151.5C 620.289,146.901 615.289,143.567 609.5,141.5 Z"/></g>
<g><path style="opacity:0.076" fill="#f0f9fd" d="M 1112.5,143.5 C 1115.75,143.794 1118.42,145.127 1120.5,147.5C 1117.52,146.674 1114.85,145.341 1112.5,143.5 Z"/></g>
<g><path style="opacity:1" fill="#aceaff" d="M 262.5,150.5 C 255.5,150.5 248.5,150.5 241.5,150.5C 241.5,157.5 241.5,164.5 241.5,171.5C 248.167,171.5 254.833,171.5 261.5,171.5C 258.578,173.531 255.245,174.698 251.5,175C 246.845,175.499 242.179,175.666 237.5,175.5C 237.5,165.5 237.5,155.5 237.5,145.5C 246.49,144.512 254.823,146.178 262.5,150.5 Z"/></g>
<g><path style="opacity:0.357" fill="#e7f6fc" d="M 708.5,145.5 C 708.027,146.906 707.027,147.573 705.5,147.5C 705.973,146.094 706.973,145.427 708.5,145.5 Z"/></g>
<g><path style="opacity:0.088" fill="#f7fbfd" d="M 852.5,146.5 C 852.573,148.027 851.906,149.027 850.5,149.5C 850.427,147.973 851.094,146.973 852.5,146.5 Z"/></g>
<g><path style="opacity:0.169" fill="#e6f6fc" d="M 1008.5,145.5 C 1011.24,145.707 1013.57,146.707 1015.5,148.5C 1012.76,148.293 1010.43,147.293 1008.5,145.5 Z"/></g>
<g><path style="opacity:0.084" fill="#eaf7fc" d="M 1356.5,144.5 C 1353,146.75 1349.33,148.75 1345.5,150.5C 1348.4,147.214 1352.07,145.214 1356.5,144.5 Z"/></g>
<g><path style="opacity:0.057" fill="#f3fafd" d="M 761.5,146.5 C 764.089,146.461 766.089,147.461 767.5,149.5C 765.181,149.008 763.181,148.008 761.5,146.5 Z"/></g>
<g><path style="opacity:0.016" fill="#eaf7fc" d="M 1120.5,147.5 C 1122.75,148.08 1124.42,149.413 1125.5,151.5C 1123.25,150.92 1121.58,149.587 1120.5,147.5 Z"/></g>
<g><path style="opacity:0.314" fill="#e5f5fc" d="M 705.5,147.5 C 704.738,149.262 703.404,150.262 701.5,150.5C 702.262,148.738 703.596,147.738 705.5,147.5 Z"/></g>
<g><path style="opacity:0.082" fill="#f2fafd" d="M 1262.5,145.5 C 1268.38,147.378 1272.71,151.045 1275.5,156.5C 1271.43,152.428 1267.1,148.762 1262.5,145.5 Z"/></g>
<g><path style="opacity:0.035" fill="#f0f9fd" d="M 767.5,149.5 C 769.027,149.427 770.027,150.094 770.5,151.5C 768.973,151.573 767.973,150.906 767.5,149.5 Z"/></g>
<g><path style="opacity:0.082" fill="#f2fafd" d="M 1015.5,148.5 C 1017.67,148.75 1019.34,149.75 1020.5,151.5C 1018.33,151.25 1016.66,150.25 1015.5,148.5 Z"/></g>
<g><path style="opacity:1" fill="#fcfefe" d="M 262.5,150.5 C 274.551,157.992 274.218,164.992 261.5,171.5C 254.833,171.5 248.167,171.5 241.5,171.5C 241.5,164.5 241.5,157.5 241.5,150.5C 248.5,150.5 255.5,150.5 262.5,150.5 Z"/></g>
<g><path style="opacity:0.71" fill="#c8eafa" d="M 813.5,144.5 C 813.397,147.636 812.397,150.302 810.5,152.5C 810.733,149.458 811.733,146.792 813.5,144.5 Z"/></g>
<g><path style="opacity:0.286" fill="#edf8fc" d="M 1216.5,141.5 C 1211.52,145.658 1206.19,149.324 1200.5,152.5C 1205.13,147.849 1210.46,144.182 1216.5,141.5 Z"/></g>
<g><path style="opacity:0.435" fill="#e2f4fc" d="M 1333.5,147.5 C 1334.74,149.214 1335.41,151.214 1335.5,153.5C 1333.93,151.898 1333.26,149.898 1333.5,147.5 Z"/></g>
<g><path style="opacity:0.318" fill="#e5f5fc" d="M 641.5,145.5 C 636.635,149.014 631.968,153.014 627.5,157.5C 625.962,155.757 624.962,153.757 624.5,151.5C 625.885,152.574 627.051,153.907 628,155.5C 631.552,150.767 636.052,147.434 641.5,145.5 Z"/></g>
<g><path style="opacity:0.016" fill="#e8f6fc" d="M 770.5,151.5 C 774.5,153.5 777.5,156.5 779.5,160.5C 776.167,157.833 773.167,154.833 770.5,151.5 Z"/></g>
<g><path style="opacity:0.094" fill="#f1f9fd" d="M 850.5,149.5 C 850.008,151.819 849.008,153.819 847.5,155.5C 847.461,152.911 848.461,150.911 850.5,149.5 Z"/></g>
<g><path style="opacity:0.092" fill="#ebf7fc" d="M 1020.5,151.5 C 1024.83,153.833 1028.17,157.167 1030.5,161.5C 1026.83,158.5 1023.5,155.167 1020.5,151.5 Z"/></g>
<g><path style="opacity:0.357" fill="#f1f9fd" d="M 1127.5,149.5 C 1127.66,150.873 1127.49,152.207 1127,153.5C 1126.28,152.956 1125.78,152.289 1125.5,151.5C 1126.17,150.833 1126.83,150.167 1127.5,149.5 Z"/></g>
<g><path style="opacity:0.482" fill="#c9ebfa" d="M 955.5,148.5 C 951.167,153.5 946.5,158.167 941.5,162.5C 945.167,156.833 949.833,152.167 955.5,148.5 Z"/></g>
<g><path style="opacity:0.388" fill="#d3effb" d="M 1345.5,150.5 C 1343.2,153.297 1340.7,155.964 1338,158.5C 1336.11,157.383 1335.27,155.716 1335.5,153.5C 1336.16,154.278 1336.99,154.944 1338,155.5C 1340.39,153.601 1342.89,151.934 1345.5,150.5 Z"/></g>
<g><path style="opacity:1" fill="#979eb6" d="M 82.5,154.5 C 92.5,154.5 102.5,154.5 112.5,154.5C 112.5,158.833 112.5,163.167 112.5,167.5C 102.692,168.027 93.0258,167.194 83.5,165C 79.8424,161.862 79.509,158.362 82.5,154.5 Z"/></g>
<g><path style="opacity:0.314" fill="#ebf8fc" d="M 701.5,150.5 C 697.472,154.859 693.472,159.193 689.5,163.5C 692.113,157.887 696.113,153.554 701.5,150.5 Z"/></g>
<g><path style="opacity:1" fill="#74788b" d="M 49.5,154.5 C 55.0705,155.116 60.4039,156.616 65.5,159C 66.3366,160.011 66.67,161.178 66.5,162.5C 60.6293,164.323 54.6293,164.823 48.5,164C 45.9076,160.583 46.241,157.416 49.5,154.5 Z"/></g>
<g><path style="opacity:0.443" fill="#d8f1fb" d="M 1081.5,145.5 C 1074.67,148.989 1068.67,153.656 1063.5,159.5C 1067.45,152.213 1073.45,147.547 1081.5,145.5 Z"/></g>
<g><path style="opacity:0.431" fill="#def3fb" d="M 1200.5,152.5 C 1199.42,154.587 1197.75,155.92 1195.5,156.5C 1196.58,154.413 1198.25,153.08 1200.5,152.5 Z"/></g>
<g><path style="opacity:0.231" fill="#e5f5fc" d="M 847.5,155.5 C 847.072,158.785 846.072,161.785 844.5,164.5C 844.528,161.084 845.528,158.084 847.5,155.5 Z"/></g>
<g><path style="opacity:0.216" fill="#eef8fc" d="M 1275.5,156.5 C 1276.91,156.973 1277.57,157.973 1277.5,159.5C 1276.09,159.027 1275.43,158.027 1275.5,156.5 Z"/></g>
<g><path style="opacity:0.045" fill="#f4fafd" d="M 1277.5,159.5 C 1279.54,160.911 1280.54,162.911 1280.5,165.5C 1278.99,163.819 1277.99,161.819 1277.5,159.5 Z"/></g>
<g><path style="opacity:0.184" fill="#ecf8fc" d="M 779.5,160.5 C 780.906,160.973 781.573,161.973 781.5,163.5C 780.094,163.027 779.427,162.027 779.5,160.5 Z"/></g>
<g><path style="opacity:0.08" fill="#f6fbfd" d="M 1030.5,161.5 C 1031.91,161.973 1032.57,162.973 1032.5,164.5C 1031.09,164.027 1030.43,163.027 1030.5,161.5 Z"/></g>
<g><path style="opacity:0.055" fill="#f0f9fd" d="M 1063.5,159.5 C 1063.01,161.819 1062.01,163.819 1060.5,165.5C 1060.46,162.911 1061.46,160.911 1063.5,159.5 Z"/></g>
<g><path style="opacity:0.034" fill="#eef8fd" d="M 1246.5,166.5 C 1239.62,164.264 1232.62,163.931 1225.5,165.5C 1226.06,164.21 1227.06,163.377 1228.5,163C 1233.57,162.249 1238.57,162.582 1243.5,164C 1244.94,164.377 1245.94,165.21 1246.5,166.5 Z"/></g>
<g><path style="opacity:0.557" fill="#c1e8fa" d="M 1193.5,158.5 C 1192.98,162.533 1191.64,166.2 1189.5,169.5C 1190.07,165.463 1191.4,161.797 1193.5,158.5 Z"/></g>
<g><path style="opacity:0.247" fill="#ecf8fc" d="M 941.5,162.5 C 941.573,164.027 940.906,165.027 939.5,165.5C 939.427,163.973 940.094,162.973 941.5,162.5 Z"/></g>
<g><path style="opacity:0.216" fill="#eef8fc" d="M 689.5,163.5 C 689.573,165.027 688.906,166.027 687.5,166.5C 687.427,164.973 688.094,163.973 689.5,163.5 Z"/></g>
<g><path style="opacity:0.029" fill="#e1f4fc" d="M 574.5,163.5 C 574.706,166.495 574.04,169.162 572.5,171.5C 572.565,168.572 573.232,165.905 574.5,163.5 Z"/></g>
<g><path style="opacity:0.022" fill="#eaf7fd" d="M 739.5,168.5 C 735.204,167.537 730.871,167.371 726.5,168C 724.297,170.372 721.963,172.539 719.5,174.5C 723.083,166.815 729.083,164.315 737.5,167C 738.416,167.278 739.082,167.778 739.5,168.5 Z"/></g>
<g><path style="opacity:0.024" fill="#e7f7fc" d="M 1111.5,167.5 C 1107.43,167.307 1103.43,167.64 1099.5,168.5C 1099.61,167.883 1099.94,167.383 1100.5,167C 1104.36,166.19 1108.02,166.357 1111.5,167.5 Z"/></g>
<g><path style="opacity:0.318" fill="#eaf7fc" d="M 687.5,166.5 C 687.34,168.153 686.674,169.486 685.5,170.5C 685.229,168.62 685.896,167.287 687.5,166.5 Z"/></g>
<g><path style="opacity:0.031" fill="#f4fbfd" d="M 986.5,168.5 C 982.4,168.237 978.4,168.57 974.5,169.5C 976.048,168.206 978.048,167.539 980.5,167.5C 982.696,167.505 984.696,167.838 986.5,168.5 Z"/></g>
<g><path style="opacity:0.086" fill="#ecf8fc" d="M 939.5,165.5 C 938.674,168.485 937.341,171.151 935.5,173.5C 935.794,170.246 937.127,167.579 939.5,165.5 Z"/></g>
<g><path style="opacity:0.627" fill="#c3eafa" d="M 1060.5,165.5 C 1060.59,168.152 1059.92,170.485 1058.5,172.5C 1058.41,169.848 1059.08,167.515 1060.5,165.5 Z"/></g>
<g><path style="opacity:0.024" fill="#dff4fc" d="M 1111.5,167.5 C 1115.57,167.206 1118.9,168.54 1121.5,171.5C 1118.01,170.342 1114.68,169.009 1111.5,167.5 Z"/></g>
<g><path style="opacity:0.557" fill="#caecfa" d="M 1280.5,165.5 C 1281.92,167.515 1282.59,169.848 1282.5,172.5C 1281.08,170.485 1280.41,168.152 1280.5,165.5 Z"/></g>
<g><path style="opacity:0.088" fill="#ecf8fd" d="M 740.5,168.5 C 743.089,168.461 745.089,169.461 746.5,171.5C 744.181,171.008 742.181,170.008 740.5,168.5 Z"/></g>
<g><path style="opacity:0.029" fill="#f4fbfd" d="M 991.5,169.5 C 993.553,169.402 995.22,170.069 996.5,171.5C 994.447,171.598 992.78,170.931 991.5,169.5 Z"/></g>
<g><path style="opacity:0.286" fill="#d7f1fb" d="M 844.5,164.5 C 844.354,168.387 843.687,172.054 842.5,175.5C 842.251,171.542 842.918,167.876 844.5,164.5 Z"/></g>
<g><path style="opacity:0.055" fill="#edf8fc" d="M 653.5,171.5 C 651.401,172.612 649.067,173.279 646.5,173.5C 648.438,171.837 650.772,171.171 653.5,171.5 Z"/></g>
<g><path style="opacity:0.247" fill="#f1f9fd" d="M 746.5,171.5 C 748.404,171.738 749.738,172.738 750.5,174.5C 748.596,174.262 747.262,173.262 746.5,171.5 Z"/></g>
<g><path style="opacity:0.112" fill="#eaf7fd" d="M 998.5,172.5 C 1001.36,173.247 1003.36,174.914 1004.5,177.5C 1002.09,176.299 1000.09,174.633 998.5,172.5 Z"/></g>
<g><path style="opacity:0.082" fill="#f1fafd" d="M 1121.5,171.5 C 1125.64,172.569 1127.64,175.235 1127.5,179.5C 1125.92,176.574 1123.92,173.908 1121.5,171.5 Z"/></g>
<g><path style="opacity:0.671" fill="#c7eafa" d="M 1189.5,169.5 C 1189.28,173.8 1188.28,177.8 1186.5,181.5C 1186.58,177.163 1187.58,173.163 1189.5,169.5 Z"/></g>
<g><path style="opacity:0.021" fill="#eef8fd" d="M 1225.5,165.5 C 1220.18,169.825 1217.84,175.491 1218.5,182.5C 1229.83,182.5 1241.17,182.5 1252.5,182.5C 1252.56,180.116 1252.22,177.782 1251.5,175.5C 1249.66,172.33 1247.99,169.33 1246.5,166.5C 1248.02,166.511 1249.18,167.177 1250,168.5C 1253.02,173.062 1254.52,178.062 1254.5,183.5C 1241.83,183.5 1229.17,183.5 1216.5,183.5C 1215.89,178.382 1217.06,173.715 1220,169.5C 1221.45,167.536 1223.28,166.203 1225.5,165.5 Z"/></g>
<g><path style="opacity:0.076" fill="#e1f4fc" d="M 1367.5,171.5 C 1363.69,172.787 1359.69,173.787 1355.5,174.5C 1359.08,172.272 1363.08,171.272 1367.5,171.5 Z"/></g>
<g><path style="opacity:0.108" fill="#e9f6fc" d="M 750.5,174.5 C 751.931,174.881 752.764,175.881 753,177.5C 753.497,179.81 753.663,182.143 753.5,184.5C 752.716,181.205 751.716,177.871 750.5,174.5 Z"/></g>
<g><path style="opacity:0.069" fill="#e7f6fc" d="M 974.5,169.5 C 972.675,174.986 970.675,180.319 968.5,185.5C 969.148,179.543 971.148,174.21 974.5,169.5 Z"/></g>
<g><path style="opacity:0.084" fill="#eff9fd" d="M 572.5,171.5 C 571.873,175.42 570.207,178.753 567.5,181.5C 568.659,177.849 570.326,174.515 572.5,171.5 Z"/></g>
<g><path style="opacity:0.076" fill="#fbfdfd" d="M 642.5,175.5 C 642.027,176.906 641.027,177.573 639.5,177.5C 639.973,176.094 640.973,175.427 642.5,175.5 Z"/></g>
<g><path style="opacity:0.075" fill="#ecf7fd" d="M 719.5,174.5 C 717.461,179.235 715.461,183.901 713.5,188.5C 713.89,183.063 715.89,178.396 719.5,174.5 Z"/></g>
<g><path style="opacity:0.663" fill="#c6eafa" d="M 785.5,172.5 C 786.913,175.219 787.58,178.219 787.5,181.5C 786.087,178.781 785.42,175.781 785.5,172.5 Z"/></g>
<g><path style="opacity:0.686" fill="#c0e8f9" d="M 935.5,173.5 C 934.868,177.702 933.868,181.702 932.5,185.5C 932.272,181.076 933.272,177.076 935.5,173.5 Z"/></g>
<g><path style="opacity:0.082" fill="#eef8fd" d="M 1355.5,174.5 C 1352.48,176.674 1349.15,178.341 1345.5,179.5C 1348.25,176.793 1351.58,175.127 1355.5,174.5 Z"/></g>
<g><path style="opacity:1" fill="#82879a" d="M 49.5,179.5 C 60.8739,176.819 66.2072,181.152 65.5,192.5C 61.7777,193.296 58.111,194.296 54.5,195.5C 49.6265,195.112 47.6265,192.445 48.5,187.5C 48.7027,184.803 49.036,182.136 49.5,179.5 Z"/></g>
<g><path style="opacity:1" fill="#9da4bc" d="M 83.5,179.5 C 92.2937,179.091 100.96,179.924 109.5,182C 113.41,185.925 113.41,189.925 109.5,194C 100.793,197.244 92.1261,197.244 83.5,194C 78.232,189.171 78.232,184.337 83.5,179.5 Z"/></g>
<g><path style="opacity:0.045" fill="#e7f6fc" d="M 1099.5,168.5 C 1093.28,176.934 1089.28,186.267 1087.5,196.5C 1087.7,185.443 1091.7,176.109 1099.5,168.5 Z"/></g>
<g><path style="opacity:0.016" fill="#f9fcfd" d="M 639.5,177.5 C 636.805,180.526 634.138,183.526 631.5,186.5C 632.731,182.266 635.398,179.266 639.5,177.5 Z"/></g>
<g><path style="opacity:0.318" fill="#e3f4fc" d="M 1345.5,179.5 C 1345.34,181.153 1344.67,182.486 1343.5,183.5C 1343.16,181.517 1343.82,180.183 1345.5,179.5 Z"/></g>
<g><path style="opacity:0.067" fill="#edf8fd" d="M 567.5,181.5 C 565.167,185.833 561.833,189.167 557.5,191.5C 560.5,187.833 563.833,184.5 567.5,181.5 Z"/></g>
<g><path style="opacity:0.012" fill="#ebf7fd" d="M 1004.5,177.5 C 1007.9,180.291 1009.73,183.958 1010,188.5C 1010.87,193.444 1010.37,198.11 1008.5,202.5C 1007.34,196.614 1007.34,190.781 1008.5,185C 1007.01,182.525 1005.68,180.025 1004.5,177.5 Z"/></g>
<g><path style="opacity:0.242" fill="#d6f1fb" d="M 1127.5,179.5 C 1129.14,184.234 1129.81,189.234 1129.5,194.5C 1128.28,189.71 1127.61,184.71 1127.5,179.5 Z"/></g>
<g><path style="opacity:1" fill="#91e2fe" d="M 238.5,188.5 C 238.5,196.833 238.5,205.167 238.5,213.5C 233.968,213.818 229.634,213.485 225.5,212.5C 229.5,212.5 233.5,212.5 237.5,212.5C 237.174,204.316 237.508,196.316 238.5,188.5 Z"/></g>
<g><path style="opacity:0.014" fill="#ebf8fd" d="M 968.5,186.5 C 969.717,195.152 969.717,203.818 968.5,212.5C 967.276,207.716 966.609,202.716 966.5,197.5C 966.363,193.553 967.03,189.886 968.5,186.5 Z"/></g>
<g><path style="opacity:0.847" fill="#aae0f8" d="M 842.5,183.5 C 843.617,187.295 844.283,191.295 844.5,195.5C 842.75,191.817 842.083,187.817 842.5,183.5 Z"/></g>
<g><path style="opacity:0.086" fill="#f8fcfd" d="M 557.5,191.5 C 557.027,192.906 556.027,193.573 554.5,193.5C 554.973,192.094 555.973,191.427 557.5,191.5 Z"/></g>
<g><path style="opacity:0.065" fill="#edf8fc" d="M 552.5,194.5 C 551.22,195.931 549.553,196.598 547.5,196.5C 548.78,195.069 550.447,194.402 552.5,194.5 Z"/></g>
<g><path style="opacity:0.031" fill="#eef8fd" d="M 547.5,196.5 C 545.485,197.924 543.152,198.59 540.5,198.5C 542.515,197.076 544.848,196.41 547.5,196.5 Z"/></g>
<g><path style="opacity:0.631" fill="#ccecfa" d="M 844.5,195.5 C 845.669,198.341 846.669,201.341 847.5,204.5C 845.138,202.081 844.138,199.081 844.5,195.5 Z"/></g>
<g><path style="opacity:0.02" fill="#e3f5fc" d="M 810.5,199.5 C 811.913,202.219 812.58,205.219 812.5,208.5C 811.087,205.781 810.42,202.781 810.5,199.5 Z"/></g>
<g><path style="opacity:0.332" fill="#d1effb" d="M 1284.5,202.5 C 1284.5,203.5 1284.5,204.5 1284.5,205.5C 1263.16,205.333 1241.83,205.5 1220.5,206C 1218.62,206.918 1217.62,208.418 1217.5,210.5C 1216.19,208.777 1216.19,206.943 1217.5,205C 1240.06,205.141 1262.39,204.308 1284.5,202.5 Z"/></g>
<g><path style="opacity:0.069" fill="#e9f6fc" d="M 713.5,201.5 C 714.807,205.081 716.141,208.747 717.5,212.5C 714.611,209.509 713.278,205.842 713.5,201.5 Z"/></g>
<g><path style="opacity:0.041" fill="#f8fcfd" d="M 847.5,204.5 C 849.341,206.849 850.674,209.515 851.5,212.5C 849.127,210.421 847.794,207.754 847.5,204.5 Z"/></g>
<g><path style="opacity:0.718" fill="#ace2f8" d="M 1129.5,199.5 C 1129.81,204.766 1129.14,209.766 1127.5,214.5C 1127.74,209.306 1128.41,204.306 1129.5,199.5 Z"/></g>
<g><path style="opacity:0.02" fill="#f0f9fd" d="M 812.5,208.5 C 813.738,210.214 814.405,212.214 814.5,214.5C 812.926,212.898 812.259,210.898 812.5,208.5 Z"/></g>
<g><path style="opacity:0.02" fill="#e6f6fc" d="M 933.5,207.5 C 934.768,209.905 935.435,212.572 935.5,215.5C 933.96,213.162 933.294,210.495 933.5,207.5 Z"/></g>
<g><path style="opacity:0.042" fill="#eef8fd" d="M 753.5,184.5 C 754.956,195.434 754.456,206.434 752,217.5C 750.512,219.16 748.679,220.16 746.5,220.5C 747.833,219.067 749.333,217.733 751,216.5C 751.5,214.5 752,212.5 752.5,210.5C 751.053,208.383 751.22,206.383 753,204.5C 753.5,197.842 753.666,191.175 753.5,184.5 Z"/></g>
<g><path style="opacity:0.026" fill="#ebf8fd" d="M 968.5,212.5 C 969.201,214.588 970.201,216.588 971.5,218.5C 970.504,218.586 969.671,218.252 969,217.5C 968.506,215.866 968.34,214.199 968.5,212.5 Z"/></g>
<g><path style="opacity:0.092" fill="#f3fafd" d="M 717.5,212.5 C 718.906,212.973 719.573,213.973 719.5,215.5C 718.094,215.027 717.427,214.027 717.5,212.5 Z"/></g>
<g><path style="opacity:0.099" fill="#f4fbfd" d="M 1089.5,210.5 C 1092.8,214.141 1096.14,217.808 1099.5,221.5C 1094.74,219.075 1091.41,215.408 1089.5,210.5 Z"/></g>
<g><path style="opacity:0.096" fill="#f1f9fd" d="M 851.5,212.5 C 857.378,219.434 864.711,223.767 873.5,225.5C 863.647,225.247 856.313,220.913 851.5,212.5 Z"/></g>
<g><path style="opacity:0.522" fill="#daf2fc" d="M 1008.5,203.5 C 1008.96,209.943 1006.63,215.109 1001.5,219C 999.922,220.094 998.255,220.928 996.5,221.5C 1002.54,216.802 1006.54,210.802 1008.5,203.5 Z"/></g>
<g><path style="opacity:0.067" fill="#e8f6fc" d="M 1059.5,215.5 C 1061.04,217.838 1061.71,220.505 1061.5,223.5C 1060.23,221.095 1059.57,218.428 1059.5,215.5 Z"/></g>
<g><path style="opacity:0.208" fill="#ddf1fb" d="M 1217.5,210.5 C 1218.74,212.649 1219.74,214.982 1220.5,217.5C 1217.91,215.964 1216.91,213.631 1217.5,210.5 Z"/></g>
<g><path style="opacity:0.337" fill="#e5f5fc" d="M 719.5,215.5 C 721.833,217.167 723.833,219.167 725.5,221.5C 722.5,220.5 720.5,218.5 719.5,215.5 Z"/></g>
<g><path style="opacity:0.184" fill="#e4f5fc" d="M 814.5,214.5 C 816.293,216.426 817.293,218.759 817.5,221.5C 815.707,219.574 814.707,217.241 814.5,214.5 Z"/></g>
<g><path style="opacity:0.675" fill="#bce6f9" d="M 909.5,217.5 C 907.565,218.15 905.565,218.483 903.5,218.5C 905.32,216.539 907.32,216.206 909.5,217.5 Z"/></g>
<g><path style="opacity:0.024" fill="#f0f9fd" d="M 935.5,215.5 C 936.738,217.214 937.405,219.214 937.5,221.5C 935.926,219.898 935.259,217.898 935.5,215.5 Z"/></g>
<g><path style="opacity:0.1" fill="#f3fafd" d="M 971.5,218.5 C 973.027,218.427 974.027,219.094 974.5,220.5C 972.973,220.573 971.973,219.906 971.5,218.5 Z"/></g>
<g><path style="opacity:0.031" fill="#f2fafd" d="M 909.5,217.5 C 910.931,218.78 911.598,220.447 911.5,222.5C 910.069,221.22 909.402,219.553 909.5,217.5 Z"/></g>
<g><path style="opacity:0.267" fill="#f0fafd" d="M 1127.5,214.5 C 1127.2,218.129 1125.2,220.129 1121.5,220.5C 1123.83,218.833 1125.83,216.833 1127.5,214.5 Z"/></g>
<g><path style="opacity:0.337" fill="#e5f5fc" d="M 1220.5,217.5 C 1223.03,220.39 1226.03,222.39 1229.5,223.5C 1224.89,223.888 1221.89,221.888 1220.5,217.5 Z"/></g>
<g><path style="opacity:0.596" fill="#ceedfa" d="M 903.5,218.5 C 897.76,222.079 891.427,224.079 884.5,224.5C 890.749,222.529 897.083,220.529 903.5,218.5 Z"/></g>
<g><path style="opacity:0.088" fill="#f0f9fd" d="M 746.5,220.5 C 745.089,222.539 743.089,223.539 740.5,223.5C 742.181,221.992 744.181,220.992 746.5,220.5 Z"/></g>
<g><path style="opacity:0.067" fill="#eef8fd" d="M 786.5,215.5 C 786.498,219.165 785.165,222.165 782.5,224.5C 783.597,221.314 784.93,218.314 786.5,215.5 Z"/></g>
<g><path style="opacity:0.088" fill="#eef9fd" d="M 974.5,220.5 C 976.819,220.992 978.819,221.992 980.5,223.5C 977.911,223.539 975.911,222.539 974.5,220.5 Z"/></g>
<g><path style="opacity:0.069" fill="#e6f6fc" d="M 1036.5,219.5 C 1036.88,221.698 1036.21,223.365 1034.5,224.5C 1034.8,222.597 1035.46,220.93 1036.5,219.5 Z"/></g>
<g><path style="opacity:0.024" fill="#f5fbfd" d="M 725.5,221.5 C 730.202,222.108 734.869,222.775 739.5,223.5C 736.024,224.643 732.358,224.81 728.5,224C 727.058,223.623 726.058,222.79 725.5,221.5 Z"/></g>
<g><path style="opacity:0.021" fill="#f5fbfd" d="M 992.5,223.5 C 988.5,224.833 984.5,224.833 980.5,223.5C 984.5,222.167 988.5,222.167 992.5,223.5 Z"/></g>
<g><path style="opacity:0.102" fill="#f3fafd" d="M 996.5,221.5 C 995.713,223.104 994.38,223.771 992.5,223.5C 993.514,222.326 994.847,221.66 996.5,221.5 Z"/></g>
<g><path style="opacity:0.036" fill="#f3fbfd" d="M 1101.5,222.5 C 1106.19,222.807 1110.86,223.141 1115.5,223.5C 1113.7,224.162 1111.7,224.495 1109.5,224.5C 1106.47,224.713 1103.81,224.047 1101.5,222.5 Z"/></g>
<g><path style="opacity:0.671" fill="#caecfa" d="M 1121.5,220.5 C 1120.31,222.975 1118.31,223.975 1115.5,223.5C 1117.18,221.992 1119.18,220.992 1121.5,220.5 Z"/></g>
<g><path style="opacity:0.72" fill="#b9e6f9" d="M 1268.5,222.5 C 1264.12,224.211 1259.45,224.877 1254.5,224.5C 1258.98,223.479 1263.65,222.813 1268.5,222.5 Z"/></g>
<g><path style="opacity:0.027" fill="#f0f9fd" d="M 818.5,223.5 C 819.906,223.973 820.573,224.973 820.5,226.5C 819.094,226.027 818.427,225.027 818.5,223.5 Z"/></g>
<g><path style="opacity:0.204" fill="#e9f6fc" d="M 937.5,221.5 C 938.931,222.78 939.598,224.447 939.5,226.5C 938.069,225.22 937.402,223.553 937.5,221.5 Z"/></g>
<g><path style="opacity:0.031" fill="#f0f9fd" d="M 782.5,224.5 C 782.573,226.027 781.906,227.027 780.5,227.5C 780.427,225.973 781.094,224.973 782.5,224.5 Z"/></g>
<g><path style="opacity:0.027" fill="#f2fafd" d="M 1034.5,224.5 C 1034.57,226.027 1033.91,227.027 1032.5,227.5C 1032.43,225.973 1033.09,224.973 1034.5,224.5 Z"/></g>
<g><path style="opacity:0.078" fill="#f1f9fd" d="M 1186.5,221.5 C 1188.34,223.849 1189.67,226.515 1190.5,229.5C 1188.13,227.421 1186.79,224.754 1186.5,221.5 Z"/></g>
<g><path style="opacity:0.031" fill="#f0f9fd" d="M 820.5,226.5 C 821.906,226.973 822.573,227.973 822.5,229.5C 821.094,229.027 820.427,228.027 820.5,226.5 Z"/></g>
<g><path style="opacity:0.041" fill="#f6fbfd" d="M 939.5,226.5 C 940.674,227.514 941.34,228.847 941.5,230.5C 939.896,229.713 939.229,228.38 939.5,226.5 Z"/></g>
<g><path style="opacity:0.035" fill="#f0f9fd" d="M 780.5,227.5 C 780.573,229.027 779.906,230.027 778.5,230.5C 778.427,228.973 779.094,227.973 780.5,227.5 Z"/></g>
<g><path style="opacity:0.086" fill="#eff9fd" d="M 822.5,229.5 C 826.167,232.5 829.5,235.833 832.5,239.5C 828.167,237.167 824.833,233.833 822.5,229.5 Z"/></g>
<g><path style="opacity:0.039" fill="#f2fafd" d="M 1032.5,227.5 C 1032.26,229.404 1031.26,230.738 1029.5,231.5C 1029.74,229.596 1030.74,228.262 1032.5,227.5 Z"/></g>
<g><path style="opacity:0.098" fill="#eaf7fc" d="M 689.5,230.5 C 691.914,231.911 693.581,233.911 694.5,236.5C 692.086,235.089 690.419,233.089 689.5,230.5 Z"/></g>
<g><path style="opacity:0.02" fill="#eaf7fc" d="M 1190.5,229.5 C 1192.26,230.262 1193.26,231.596 1193.5,233.5C 1191.74,232.738 1190.74,231.404 1190.5,229.5 Z"/></g>
<g><path style="opacity:0.039" fill="#eef8fd" d="M 941.5,230.5 C 942.906,230.973 943.573,231.973 943.5,233.5C 942.094,233.027 941.427,232.027 941.5,230.5 Z"/></g>
<g><path style="opacity:0.051" fill="#f6fbfd" d="M 1063.5,229.5 C 1065.01,231.181 1066.01,233.181 1066.5,235.5C 1064.46,234.089 1063.46,232.089 1063.5,229.5 Z"/></g>
<g><path style="opacity:0.071" fill="#eef8fd" d="M 778.5,230.5 C 777.581,233.089 775.914,235.089 773.5,236.5C 774.419,233.911 776.086,231.911 778.5,230.5 Z"/></g>
<g><path style="opacity:0.024" fill="#ecf8fc" d="M 943.5,233.5 C 945.262,234.262 946.262,235.596 946.5,237.5C 944.738,236.738 943.738,235.404 943.5,233.5 Z"/></g>
<g><path style="opacity:0.016" fill="#fafcfd" d="M 1028.5,232.5 C 1027.17,235.833 1024.83,238.167 1021.5,239.5C 1023.5,236.833 1025.83,234.5 1028.5,232.5 Z"/></g>
<g><path style="opacity:0.027" fill="#f2fafd" d="M 1066.5,235.5 C 1067.91,235.973 1068.57,236.973 1068.5,238.5C 1067.09,238.027 1066.43,237.027 1066.5,235.5 Z"/></g>
<g><path style="opacity:0.094" fill="#f9fcfd" d="M 1068.5,238.5 C 1070.83,240.167 1072.83,242.167 1074.5,244.5C 1071.5,243.5 1069.5,241.5 1068.5,238.5 Z"/></g>
<g><path style="opacity:0.129" fill="#eef8fd" d="M 1130.5,240.5 C 1128.14,240.674 1125.81,241.007 1123.5,241.5C 1125.05,240.14 1126.88,239.14 1129,238.5C 1130.03,238.836 1130.53,239.503 1130.5,240.5 Z"/></g>
<g><path style="opacity:0.271" fill="#e0f3fc" d="M 1195.5,235.5 C 1198.09,236.419 1200.09,238.086 1201.5,240.5C 1198.91,239.581 1196.91,237.914 1195.5,235.5 Z"/></g>
<g><path style="opacity:0.069" fill="#f1f9fd" d="M 1280.5,234.5 C 1280.83,237.491 1279.83,239.824 1277.5,241.5C 1278.26,238.982 1279.26,236.649 1280.5,234.5 Z"/></g>
<g><path style="opacity:0.227" fill="#e3f5fc" d="M 694.5,236.5 C 697.089,237.419 699.089,239.086 700.5,241.5C 697.911,240.581 695.911,238.914 694.5,236.5 Z"/></g>
<g><path style="opacity:0.031" fill="#f2fafd" d="M 772.5,237.5 C 771.089,239.914 769.089,241.581 766.5,242.5C 767.911,240.086 769.911,238.419 772.5,237.5 Z"/></g>
<g><path style="opacity:0.212" fill="#eef8fc" d="M 832.5,239.5 C 834.027,239.427 835.027,240.094 835.5,241.5C 833.973,241.573 832.973,240.906 832.5,239.5 Z"/></g>
<g><path style="opacity:0.027" fill="#f8fcfd" d="M 1020.5,240.5 C 1019.74,242.262 1018.4,243.262 1016.5,243.5C 1017.26,241.738 1018.6,240.738 1020.5,240.5 Z"/></g>
<g><path style="opacity:0.239" fill="#ecf8fc" d="M 700.5,241.5 C 702.027,241.427 703.027,242.094 703.5,243.5C 701.973,243.573 700.973,242.906 700.5,241.5 Z"/></g>
<g><path style="opacity:0.073" fill="#eef8fd" d="M 835.5,241.5 C 839.151,242.659 842.485,244.326 845.5,246.5C 841.58,245.873 838.247,244.207 835.5,241.5 Z"/></g>
<g><path style="opacity:0.096" fill="#ecf7fc" d="M 948.5,239.5 C 950.749,240.08 952.415,241.413 953.5,243.5C 951.251,242.92 949.585,241.587 948.5,239.5 Z"/></g>
<g><path style="opacity:0.169" fill="#e7f6fc" d="M 1123.5,241.5 C 1121.57,243.293 1119.24,244.293 1116.5,244.5C 1118.43,242.707 1120.76,241.707 1123.5,241.5 Z"/></g>
<g><path style="opacity:0.071" fill="#f4fafd" d="M 1130.5,240.5 C 1132.83,242.176 1133.83,244.509 1133.5,247.5C 1132.26,245.351 1131.26,243.018 1130.5,240.5 Z"/></g>
<g><path style="opacity:0.053" fill="#f1f9fd" d="M 1203.5,241.5 C 1205.82,241.992 1207.82,242.992 1209.5,244.5C 1206.91,244.539 1204.91,243.539 1203.5,241.5 Z"/></g>
<g><path style="opacity:0.02" fill="#f6fbfd" d="M 766.5,242.5 C 766.027,243.906 765.027,244.573 763.5,244.5C 763.973,243.094 764.973,242.427 766.5,242.5 Z"/></g>
<g><path style="opacity:0.059" fill="#f0f9fd" d="M 703.5,243.5 C 706.485,244.326 709.151,245.659 711.5,247.5C 708.246,247.206 705.579,245.873 703.5,243.5 Z"/></g>
<g><path style="opacity:0.053" fill="#f3fafd" d="M 953.5,243.5 C 956.485,244.326 959.151,245.659 961.5,247.5C 958.246,247.206 955.579,245.873 953.5,243.5 Z"/></g>
<g><path style="opacity:0.553" fill="#d1eefb" d="M 1209.5,244.5 C 1215.01,245.545 1220.35,246.878 1225.5,248.5C 1219.76,248.397 1214.42,247.064 1209.5,244.5 Z"/></g>
<g><path style="opacity:0.043" fill="#f1f9fd" d="M 1275.5,243.5 C 1275.03,244.906 1274.03,245.573 1272.5,245.5C 1272.97,244.094 1273.97,243.427 1275.5,243.5 Z"/></g>
<g><path style="opacity:0.055" fill="#f4fafd" d="M 763.5,244.5 C 762.089,246.539 760.089,247.539 757.5,247.5C 759.181,245.992 761.181,244.992 763.5,244.5 Z"/></g>
<g><path style="opacity:0.059" fill="#eef8fc" d="M 1014.5,244.5 C 1009.93,248.25 1004.59,250.25 998.5,250.5C 1003.82,248.722 1009.16,246.722 1014.5,244.5 Z"/></g>
<g><path style="opacity:0.071" fill="#f0f9fd" d="M 1074.5,244.5 C 1077.48,245.326 1080.15,246.659 1082.5,248.5C 1079.25,248.206 1076.58,246.873 1074.5,244.5 Z"/></g>
<g><path style="opacity:0.024" fill="#f3fafd" d="M 1116.5,244.5 C 1114.9,246.074 1112.9,246.741 1110.5,246.5C 1112.21,245.262 1114.21,244.595 1116.5,244.5 Z"/></g>
<g><path style="opacity:0.041" fill="#f5fbfd" d="M 1272.5,245.5 C 1271.71,247.104 1270.38,247.771 1268.5,247.5C 1269.51,246.326 1270.85,245.66 1272.5,245.5 Z"/></g>
<g><path style="opacity:0.678" fill="#c5eafa" d="M 711.5,247.5 C 714.495,247.294 717.162,247.96 719.5,249.5C 716.572,249.435 713.905,248.768 711.5,247.5 Z"/></g>
<g><path style="opacity:0.663" fill="#c3e9fa" d="M 961.5,247.5 C 964.495,247.294 967.162,247.96 969.5,249.5C 966.572,249.435 963.905,248.768 961.5,247.5 Z"/></g>
<g><path style="opacity:0.02" fill="#f1f9fd" d="M 1110.5,246.5 C 1108.49,247.924 1106.15,248.59 1103.5,248.5C 1105.51,247.076 1107.85,246.41 1110.5,246.5 Z"/></g>
<g><path style="opacity:0.043" fill="#f1f9fd" d="M 757.5,247.5 C 756.22,248.931 754.553,249.598 752.5,249.5C 753.78,248.069 755.447,247.402 757.5,247.5 Z"/></g>
<g><path style="opacity:0.112" fill="#fdfefd" d="M 414.5,289.5 C 414.167,291.833 412.833,293.167 410.5,293.5C 411.5,291.833 412.833,290.5 414.5,289.5 Z"/></g>
<g><path style="opacity:1" fill="#595c6c" d="M 254.5,296.5 C 224.167,296.5 193.833,296.5 163.5,296.5C 163.5,300.5 163.5,304.5 163.5,308.5C 163.167,308.5 162.833,308.5 162.5,308.5C 162.5,304.167 162.5,299.833 162.5,295.5C 193.338,295.169 224.005,295.502 254.5,296.5 Z"/></g>
<g><path style="opacity:1" fill="#444653" d="M 254.5,296.5 C 254.5,297.5 254.5,298.5 254.5,299.5C 254.5,302.5 254.5,305.5 254.5,308.5C 224.167,308.5 193.833,308.5 163.5,308.5C 163.5,304.5 163.5,300.5 163.5,296.5C 193.833,296.5 224.167,296.5 254.5,296.5 Z"/></g>
<g><path style="opacity:0.146" fill="#c7c8d0" d="M 158.5,308.5 C 159.833,308.5 161.167,308.5 162.5,308.5C 162.5,322.5 162.5,336.5 162.5,350.5C 149.833,350.5 137.167,350.5 124.5,350.5C 126.026,348.87 128.026,348.037 130.5,348C 140.161,347.5 149.828,347.334 159.5,347.5C 159.777,334.463 159.443,321.463 158.5,308.5 Z"/></g>
<g><path style="opacity:1" fill="#5b5d6e" d="M 163.5,308.5 C 193.833,308.5 224.167,308.5 254.5,308.5C 254.5,321.167 254.5,333.833 254.5,346.5C 254.5,347.833 254.5,349.167 254.5,350.5C 224.167,350.5 193.833,350.5 163.5,350.5C 163.5,336.5 163.5,322.5 163.5,308.5 Z"/></g>
<g><path style="opacity:0.204" fill="#dddee2" d="M 254.5,346.5 C 255.404,347.209 255.737,348.209 255.5,349.5C 269.344,349.171 283.01,349.504 296.5,350.5C 282.5,350.5 268.5,350.5 254.5,350.5C 254.5,349.167 254.5,347.833 254.5,346.5 Z"/></g>
<g><path style="opacity:0.998" fill="#707487" d="M 162.5,308.5 C 162.833,308.5 163.167,308.5 163.5,308.5C 163.5,322.5 163.5,336.5 163.5,350.5C 193.833,350.5 224.167,350.5 254.5,350.5C 268.5,350.5 282.5,350.5 296.5,350.5C 297.72,355.455 297.72,360.455 296.5,365.5C 294.6,368.518 293.267,371.851 292.5,375.5C 292.167,375.5 291.833,375.5 291.5,375.5C 291.5,371.167 291.5,366.833 291.5,362.5C 237.128,361.888 182.794,363.055 128.5,366C 126.618,366.198 124.952,366.698 123.5,367.5C 122.883,367.389 122.383,367.056 122,366.5C 120.933,360.795 121.767,355.461 124.5,350.5C 137.167,350.5 149.833,350.5 162.5,350.5C 162.5,336.5 162.5,322.5 162.5,308.5 Z"/></g>
<g><path style="opacity:0.755" fill="#b6b8c1" d="M 124.5,350.5 C 121.767,355.461 120.933,360.795 122,366.5C 122.383,367.056 122.883,367.389 123.5,367.5C 125.099,367.232 126.432,367.566 127.5,368.5C 125.208,368.756 123.041,368.423 121,367.5C 120.333,363.167 120.333,358.833 121,354.5C 121.66,352.676 122.827,351.343 124.5,350.5 Z"/></g>
<g><path style="opacity:1" fill="#5f6172" d="M 291.5,375.5 C 291.5,375.833 291.5,376.167 291.5,376.5C 263.833,376.5 236.167,376.5 208.5,376.5C 190.116,375.449 171.783,373.782 153.5,371.5C 145.391,369.779 137.057,368.779 128.5,368.5C 128.167,368.5 127.833,368.5 127.5,368.5C 126.432,367.566 125.099,367.232 123.5,367.5C 124.952,366.698 126.618,366.198 128.5,366C 182.794,363.055 237.128,361.888 291.5,362.5C 291.5,366.833 291.5,371.167 291.5,375.5 Z"/></g>
<g><path style="opacity:0.859" fill="#b1b2ba" d="M 128.5,368.5 C 137.057,368.779 145.391,369.779 153.5,371.5C 144.943,371.221 136.609,370.221 128.5,368.5 Z"/></g>
<g><path style="opacity:0.388" fill="#dddee2" d="M 296.5,365.5 C 296.118,369.332 294.785,372.665 292.5,375.5C 293.267,371.851 294.6,368.518 296.5,365.5 Z"/></g>
</svg>
