<?xml version="1.0" encoding="UTF-8"?>
<!DOCTYPE svg PUBLIC "-//W3C//DTD SVG 1.1//EN" "http://www.w3.org/Graphics/SVG/1.1/DTD/svg11.dtd">
<svg xmlns="http://www.w3.org/2000/svg" version="1.1" width="60px" height="60px" style="shape-rendering:geometricPrecision; text-rendering:geometricPrecision; image-rendering:optimizeQuality; fill-rule:evenodd; clip-rule:evenodd" xmlns:xlink="http://www.w3.org/1999/xlink">
<g><path style="opacity:1" fill="#0a2b5e" d="M 58.5,44.5 C 39.1667,44.5 19.8333,44.5 0.5,44.5C 0.5,29.8333 0.5,15.1667 0.5,0.5C 19.8333,0.5 39.1667,0.5 58.5,0.5C 58.5,15.1667 58.5,29.8333 58.5,44.5 Z"/></g>
<g><path style="opacity:1" fill="#153a76" d="M 4.5,4.5 C 21.1667,4.5 37.8333,4.5 54.5,4.5C 54.5,16.5 54.5,28.5 54.5,40.5C 37.8333,40.5 21.1667,40.5 4.5,40.5C 4.5,28.5 4.5,16.5 4.5,4.5 Z"/></g>
<g><path style="opacity:1" fill="#e4e8ef" d="M 22.5,7.5 C 23.3764,7.36912 24.0431,7.70245 24.5,8.5C 23.5,9.83333 22.5,11.1667 21.5,12.5C 22.5,13.8333 23.5,15.1667 24.5,16.5C 21.9208,16.6764 19.9208,15.3431 18.5,12.5C 19.8569,10.8144 21.1902,9.14772 22.5,7.5 Z"/></g>
<g><path style="opacity:1" fill="#ebeef3" d="M 30.5,7.5 C 31.3764,7.36912 32.0431,7.70245 32.5,8.5C 26.0272,20.3612 25.3605,20.0279 30.5,7.5 Z"/></g>
<g><path style="opacity:1" fill="#e3e7ef" d="M 34.5,7.5 C 41.8661,10.2119 42.1994,13.5452 35.5,17.5C 35.1667,17.1667 34.8333,16.8333 34.5,16.5C 35.5,15.1667 36.5,13.8333 37.5,12.5C 36.0476,11.0603 35.0476,9.39362 34.5,7.5 Z"/></g>
<g><path style="opacity:1" fill="#e8ecf2" d="M 9.5,22.5 C 10.9778,22.238 12.3112,22.5713 13.5,23.5C 12.8333,23.8333 12.1667,24.1667 11.5,24.5C 10.2867,24.2528 9.61998,23.5862 9.5,22.5 Z"/></g>
<g><path style="opacity:1" fill="#6ae3e7" d="M 19.5,22.5 C 25.8682,22.1703 32.2015,22.5037 38.5,23.5C 35.3333,23.8333 32.1667,24.1667 29,24.5C 25.4242,24.4848 22.2575,23.8182 19.5,22.5 Z"/></g>
<g><path style="opacity:1" fill="#e4c22d" d="M 40.5,22.5 C 43.5719,22.1826 46.5719,22.5159 49.5,23.5C 48,23.8333 46.5,24.1667 45,24.5C 43.0145,24.4313 41.5145,23.7647 40.5,22.5 Z"/></g>
<g><path style="opacity:1" fill="#e8ecf2" d="M 9.5,26.5 C 10.9778,26.238 12.3112,26.5713 13.5,27.5C 12.8333,27.8333 12.1667,28.1667 11.5,28.5C 10.2867,28.2528 9.61998,27.5862 9.5,26.5 Z"/></g>
<g><path style="opacity:1" fill="#64d7df" d="M 19.5,26.5 C 20.9778,26.238 22.3112,26.5713 23.5,27.5C 22.8333,27.8333 22.1667,28.1667 21.5,28.5C 20.2867,28.2528 19.62,27.5862 19.5,26.5 Z"/></g>
<g><path style="opacity:1" fill="#eac62b" d="M 25.5,26.5 C 33.5277,26.169 41.5277,26.5023 49.5,27.5C 45.5,27.8333 41.5,28.1667 37.5,28.5C 33.107,28.4907 29.107,27.824 25.5,26.5 Z"/></g>
<g><path style="opacity:1" fill="#e8ecf2" d="M 9.5,30.5 C 10.9778,30.238 12.3112,30.5713 13.5,31.5C 12.8333,31.8333 12.1667,32.1667 11.5,32.5C 10.2867,32.2528 9.61998,31.5862 9.5,30.5 Z"/></g>
<g><path style="opacity:1" fill="#67dde3" d="M 19.5,30.5 C 21.924,30.1924 24.2573,30.5258 26.5,31.5C 25.3333,31.8333 24.1667,32.1667 23,32.5C 21.3189,32.3917 20.1522,31.7251 19.5,30.5 Z"/></g>
<g><path style="opacity:1" fill="#e5c22d" d="M 28.5,30.5 C 31.8984,30.1796 35.2317,30.513 38.5,31.5C 36.8333,31.8333 35.1667,32.1667 33.5,32.5C 31.3603,32.4439 29.6936,31.7773 28.5,30.5 Z"/></g>
<g><path style="opacity:1" fill="#ca3958" d="M 40.5,30.5 C 43.5719,30.1826 46.5719,30.5159 49.5,31.5C 48,31.8333 46.5,32.1667 45,32.5C 43.0145,32.4313 41.5145,31.7647 40.5,30.5 Z"/></g>
<g><path style="opacity:1" fill="#e8ecf2" d="M 9.5,34.5 C 10.9778,34.238 12.3112,34.5713 13.5,35.5C 12.8333,35.8333 12.1667,36.1667 11.5,36.5C 10.2867,36.2528 9.61998,35.5862 9.5,34.5 Z"/></g>
<g><path style="opacity:1" fill="#69e1e5" d="M 19.5,34.5 C 23.226,34.1774 26.8927,34.5108 30.5,35.5C 28.6667,35.8333 26.8333,36.1667 25,36.5C 22.7047,36.4535 20.8714,35.7868 19.5,34.5 Z"/></g>
<g><path style="opacity:1" fill="#e9c52b" d="M 32.5,34.5 C 38.2055,34.1712 43.8722,34.5046 49.5,35.5C 46.6667,35.8333 43.8333,36.1667 41,36.5C 37.7485,36.4809 34.9151,35.8142 32.5,34.5 Z"/></g>
<g><path style="opacity:0.998" fill="#bbd5ea" d="M 0.5,44.5 C 19.8333,44.5 39.1667,44.5 58.5,44.5C 58.5,46.1667 58.5,47.8333 58.5,49.5C 51.1365,49.1694 43.8032,49.5027 36.5,50.5C 38.0814,53.1247 40.4148,54.458 43.5,54.5C 43.5,55.8333 43.5,57.1667 43.5,58.5C 34.1667,58.5 24.8333,58.5 15.5,58.5C 15.5,57.1667 15.5,55.8333 15.5,54.5C 18.5852,54.458 20.9186,53.1247 22.5,50.5C 15.1968,49.5027 7.86348,49.1694 0.5,49.5C 0.5,47.8333 0.5,46.1667 0.5,44.5 Z"/></g>
</svg>
